<svg width="1920" height="1200" viewBox="0 0 1920 1200" fill="none" xmlns="http://www.w3.org/2000/svg">
  <defs>
    <linearGradient id="bg1" x1="0" y1="0" x2="1920" y2="1200" gradientUnits="userSpaceOnUse">
      <stop stop-color="#0f2d22"/>
      <stop offset="0.55" stop-color="#1f4f3b"/>
      <stop offset="1" stop-color="#4f8a6f"/>
    </linearGradient>
    <radialGradient id="lightA" cx="0" cy="0" r="1" gradientUnits="userSpaceOnUse" gradientTransform="translate(1510 150) rotate(135) scale(780 390)">
      <stop stop-color="#DDF4E8" stop-opacity="0.6"/>
      <stop offset="1" stop-color="#DDF4E8" stop-opacity="0"/>
    </radialGradient>
    <radialGradient id="lightB" cx="0" cy="0" r="1" gradientUnits="userSpaceOnUse" gradientTransform="translate(420 970) rotate(-20) scale(760 340)">
      <stop stop-color="#A3C9B5" stop-opacity="0.36"/>
      <stop offset="1" stop-color="#A3C9B5" stop-opacity="0"/>
    </radialGradient>
    <linearGradient id="glass" x1="870" y1="220" x2="1580" y2="940" gradientUnits="userSpaceOnUse">
      <stop stop-color="#FFFFFF" stop-opacity="0.3"/>
      <stop offset="1" stop-color="#FFFFFF" stop-opacity="0.05"/>
    </linearGradient>
  </defs>

  <rect width="1920" height="1200" fill="url(#bg1)"/>
  <rect width="1920" height="1200" fill="url(#lightA)"/>
  <rect width="1920" height="1200" fill="url(#lightB)"/>

  <g opacity="0.3">
    <path d="M1040 220C978 282 950 410 996 510C1042 610 1158 660 1274 650C1390 640 1508 570 1554 458C1598 346 1570 196 1478 144C1388 94 1100 160 1040 220Z" fill="url(#glass)"/>
    <path d="M1160 390C1104 440 1088 530 1122 598C1156 666 1236 706 1316 700C1396 694 1478 644 1512 576C1544 508 1530 422 1470 382C1410 344 1216 340 1160 390Z" stroke="#E9FFF3" stroke-opacity="0.32" stroke-width="2"/>
  </g>

  <g opacity="0.24" stroke="#D8F0E2" stroke-width="1.4">
    <path d="M-120 812C220 696 560 944 900 818C1250 690 1590 846 2040 700"/>
    <path d="M-160 896C200 772 530 1014 890 900C1240 792 1600 960 2050 822"/>
    <path d="M-80 720C260 610 590 848 930 724C1260 604 1580 754 2030 620"/>
  </g>
</svg>
